# xmcd
#
# Track frame offsets:
#  225
#  14827
#  30303
#  42839
#  56909
#  73201
#  90572
#  110487
#  124300
#  141577
#  154663
#  170151
#
# Disc length: 2428 seconds
#
# Revision: 0
# Processed by: cddbd v1.4PL0 Copyright (c) Steve Scherf et al.
# Submitted via: AltoMP3_Maker 3.0
#
DISCID=b309790c
DTITLE=Alberto Y Roberto - Las Dos Caras De La Cumbia
DYEAR=1900
DGENRE=
TTITLE0=La Mucura-crls
TTITLE1=La Vida Cobra-crls
TTITLE2=Soy Tigre-crls
TTITLE3=Bailando-crls
TTITLE4=La Mujer Que Tanto Ansie-crls
TTITLE5=El Uno Pa El Otro-crls
TTITLE6=Cumbias Del Recuerdo-crls
TTITLE7=Se Supone-crls
TTITLE8=Tu Forma De Ser-crls
TTITLE9=Nana Pancha-crls
TTITLE10=Sufro Por Ti-crls
TTITLE11=Morenita-crls
EXTD=
EXTT0=
EXTT1=
EXTT2=
EXTT3=
EXTT4=
EXTT5=
EXTT6=
EXTT7=
EXTT8=
EXTT9=
EXTT10=
EXTT11=
PLAYORDER=
